<?xml version="1.0" encoding="UTF-8" standalone="no"?>
<!DOCTYPE svg PUBLIC "-//W3C//DTD SVG 1.1//EN"
 "http://www.w3.org/Graphics/SVG/1.1/DTD/svg11.dtd">
<!-- Generated by graphviz version 5.0.0 (20220707.1540)
 -->
<!-- Title: dependencies Pages: 1 -->
<svg width="320pt" height="250pt"
 viewBox="0.00 0.00 320.00 249.80" xmlns="http://www.w3.org/2000/svg" xmlns:xlink="http://www.w3.org/1999/xlink">
<g id="graph0" class="graph" transform="scale(1 1) rotate(0) translate(4 245.8)">
<title>dependencies</title>
<polygon fill="white" stroke="transparent" points="-4,4 -4,-245.8 316,-245.8 316,4 -4,4"/>
<text text-anchor="middle" x="156" y="-8.2" font-family="sans-serif" font-size="14.00">dependencies</text>
<g id="clust1" class="cluster">
<title>cluster_AppModule</title>
<polygon fill="none" stroke="black" stroke-dasharray="1,5" points="8,-108.8 8,-233.8 284,-233.8 284,-108.8 8,-108.8"/>
</g>
<g id="clust3" class="cluster">
<title>cluster_AppModule_imports</title>
<polygon fill="none" stroke="black" points="154,-116.8 154,-168.8 276,-168.8 276,-116.8 154,-116.8"/>
</g>
<g id="clust6" class="cluster">
<title>cluster_AppModule_providers</title>
<polygon fill="none" stroke="black" points="16,-116.8 16,-168.8 146,-168.8 146,-116.8 16,-116.8"/>
</g>
<g id="clust7" class="cluster">
<title>cluster_FeaturesModule</title>
<polygon fill="none" stroke="black" stroke-dasharray="1,5" points="126,-32.8 126,-100.8 304,-100.8 304,-32.8 126,-32.8"/>
</g>
<g id="clust12" class="cluster">
<title>cluster_FeaturesModule_providers</title>
<polygon fill="none" stroke="black" points="134,-40.8 134,-92.8 296,-92.8 296,-40.8 134,-40.8"/>
</g>
<!-- FeaturesModule -->
<g id="node1" class="node">
<title>FeaturesModule</title>
<polygon fill="#8dd3c7" stroke="black" points="268.48,-160.8 265.48,-164.8 244.48,-164.8 241.48,-160.8 161.52,-160.8 161.52,-124.8 268.48,-124.8 268.48,-160.8"/>
<text text-anchor="middle" x="215" y="-138.6" font-family="Times,serif" font-size="14.00">FeaturesModule</text>
</g>
<!-- AppModule -->
<g id="node2" class="node">
<title>AppModule</title>
<polygon fill="#8dd3c7" stroke="black" points="189.66,-225.8 186.66,-229.8 165.66,-229.8 162.66,-225.8 106.34,-225.8 106.34,-189.8 189.66,-189.8 189.66,-225.8"/>
<text text-anchor="middle" x="148" y="-203.6" font-family="Times,serif" font-size="14.00">AppModule</text>
</g>
<!-- FeaturesModule&#45;&gt;AppModule -->
<g id="edge1" class="edge">
<title>FeaturesModule&#45;&gt;AppModule</title>
<path fill="none" stroke="black" d="M175.67,-160.91C175.67,-160.91 175.67,-179.79 175.67,-179.79"/>
<polygon fill="black" stroke="black" points="172.17,-179.79 175.67,-189.79 179.17,-179.79 172.17,-179.79"/>
</g>
<!-- AppService -->
<g id="node3" class="node">
<title>AppService</title>
<ellipse fill="#fdb462" stroke="black" cx="81" cy="-142.8" rx="56.75" ry="18"/>
<text text-anchor="middle" x="81" y="-138.6" font-family="Times,serif" font-size="14.00">AppService</text>
</g>
<!-- AppService&#45;&gt;AppModule -->
<g id="edge2" class="edge">
<title>AppService&#45;&gt;AppModule</title>
<path fill="none" stroke="black" d="M121.9,-155.33C121.9,-155.33 121.9,-179.65 121.9,-179.65"/>
<polygon fill="black" stroke="black" points="118.4,-179.65 121.9,-189.65 125.4,-179.65 118.4,-179.65"/>
</g>
<!-- FeaturesService -->
<g id="node4" class="node">
<title>FeaturesService</title>
<ellipse fill="#fdb462" stroke="black" cx="215" cy="-66.8" rx="72.92" ry="18"/>
<text text-anchor="middle" x="215" y="-62.6" font-family="Times,serif" font-size="14.00">FeaturesService</text>
</g>
<!-- FeaturesService&#45;&gt;FeaturesModule -->
<g id="edge3" class="edge">
<title>FeaturesService&#45;&gt;FeaturesModule</title>
<path fill="none" stroke="black" d="M215,-84.81C215,-84.81 215,-114.65 215,-114.65"/>
<polygon fill="black" stroke="black" points="211.5,-114.65 215,-124.65 218.5,-114.65 211.5,-114.65"/>
</g>
</g>
</svg>
